<svg width="219" height="23" viewBox="0 0 219 23" fill="none" xmlns="http://www.w3.org/2000/svg">
<path d="M5.08386 10.5082L5.01182 8.46707V5.82563H6.86082V8.46707L6.74076 10.5082L8.56575 10.3881H11.3513V12.2131H8.56575L6.74076 12.1411L6.86082 14.1342V16.9437H5.01182V14.1342L5.08386 12.1411L2.99472 12.2131H0.521373V10.3881H2.99472L5.08386 10.5082ZM15.0044 17.9522C16.4772 17.1198 17.83 16.1673 19.0627 15.0947C20.2953 14.0061 21.2719 12.8855 21.9923 11.7328C22.7287 10.5802 23.0969 9.49163 23.0969 8.46707C23.0969 7.58659 22.8327 6.89021 22.3044 6.37793C21.7761 5.84964 21.0237 5.5855 20.0472 5.5855C19.1347 5.5855 18.3503 5.7696 17.6939 6.1378C17.0376 6.48999 16.4292 6.93023 15.8689 7.45852L15.1005 6.37793C15.6608 5.72157 16.4612 5.12925 17.5018 4.60096C18.5424 4.05667 19.655 3.78452 20.8396 3.78452C21.9602 3.78452 22.9047 3.99263 23.6732 4.40886C24.4416 4.80908 25.0099 5.33736 25.3781 5.99372C25.7463 6.65008 25.9304 7.37047 25.9304 8.1549C25.9304 9.73976 25.17 11.3726 23.6492 13.0536C22.1283 14.7185 20.2233 16.2153 17.934 17.544L25.3781 16.9917L26.2186 14.9266L27.4432 15.1667L26.8189 18.9608H15.3646L15.0044 17.9522ZM31.9974 22.8269C31.6292 22.8269 31.221 22.7949 30.7728 22.7308C30.3245 22.6828 29.9483 22.6188 29.6442 22.5387V21.17C30.1725 21.3301 30.8048 21.4101 31.5412 21.4101C32.8059 21.4101 33.8945 21.21 34.807 20.8098C35.7355 20.4096 36.4399 19.8653 36.9201 19.1769C37.4164 18.4885 37.6645 17.7361 37.6645 16.9197C37.6645 15.8311 37.3283 14.9906 36.656 14.3983C35.9996 13.79 34.9831 13.4778 33.6063 13.4618L32.8619 13.6539C32.3336 13.814 32.0775 13.886 32.0935 13.87L31.6853 12.5973C32.3576 12.4692 32.99 12.2771 33.5823 12.021C34.5749 11.6048 35.3753 11.0525 35.9836 10.3641C36.5919 9.65972 36.8961 8.91531 36.8961 8.13088C36.8961 7.21839 36.624 6.55403 36.0797 6.1378C35.5514 5.70556 34.871 5.48945 34.0386 5.48945C33.3182 5.48945 32.6218 5.61752 31.9494 5.87366C31.2931 6.12979 30.7248 6.44196 30.2445 6.81017L29.5961 5.72958C30.0444 5.28133 30.7568 4.8491 31.7333 4.43287C32.7258 4.00064 33.7344 3.78452 34.759 3.78452C36.2157 3.78452 37.3924 4.10469 38.2889 4.74504C39.1854 5.36938 39.6336 6.3299 39.6336 7.62661C39.6336 8.76323 39.1854 9.79579 38.2889 10.7243C37.3924 11.6528 36.3278 12.3332 35.0951 12.7654C35.2552 12.7494 35.4793 12.7414 35.7675 12.7414C36.712 12.7414 37.5445 12.9175 38.2649 13.2697C38.9853 13.6219 39.5376 14.1021 39.9218 14.7105C40.322 15.3028 40.5221 15.9752 40.5221 16.7276C40.5221 17.8962 40.1699 18.9448 39.4655 19.8733C38.7611 20.8018 37.7606 21.5222 36.4639 22.0345C35.1832 22.5627 33.6944 22.8269 31.9974 22.8269ZM51.1496 18.9608H43.1772L42.5529 17.8802C43.4974 16.0872 44.658 13.7179 46.0348 10.7723C47.4115 7.81071 48.6442 5.09723 49.7328 2.63189H50.3571L52.2782 3.66445L45.7946 16.1513L44.8341 17.616L51.1496 17.2799L51.2456 12.5973L53.2867 12.4292V17.1598L56.6726 16.9917V18.9608H53.2867V22.8269H51.1496V18.9608ZM64.3774 14.5664C64.3774 13.6219 64.6816 12.7494 65.2899 11.949C65.9142 11.1325 66.8427 10.4521 68.0754 9.90785C67.1309 9.29952 66.4025 8.65917 65.8902 7.98681C65.3779 7.29843 65.1218 6.44197 65.1218 5.41741C65.1218 4.47289 65.3699 3.66445 65.8662 2.99209C66.3785 2.30371 67.0508 1.78343 67.8833 1.43124C68.7157 1.07905 69.6122 0.902949 70.5728 0.902949C72.1256 0.902949 73.3743 1.26315 74.3188 1.98354C75.2633 2.70393 75.7356 3.66445 75.7356 4.86511C75.7356 5.7776 75.4554 6.62607 74.8951 7.41049C74.3508 8.17891 73.5584 8.85128 72.5178 9.42759C73.7985 10.148 74.7911 10.8764 75.4954 11.6128C76.1998 12.3492 76.552 13.2617 76.552 14.3503C76.552 15.3268 76.2639 16.1833 75.6875 16.9197C75.1272 17.6401 74.3748 18.2004 73.4303 18.6006C72.4858 19.0008 71.4612 19.2009 70.3566 19.2009C69.3321 19.2009 68.3636 19.0408 67.4511 18.7207C66.5546 18.4005 65.8182 17.8962 65.2419 17.2078C64.6655 16.5034 64.3774 15.623 64.3774 14.5664ZM67.331 4.86511C67.331 5.44142 67.5071 5.9537 67.8593 6.40194C68.2115 6.85019 68.6437 7.2344 69.156 7.55457C69.6683 7.87475 70.4047 8.29097 71.3652 8.80325C72.0856 8.41904 72.6539 7.93078 73.0701 7.33845C73.4863 6.74613 73.6945 6.10578 73.6945 5.41741C73.6945 4.36083 73.4063 3.53638 72.83 2.94406C72.2537 2.33573 71.4773 2.03156 70.5007 2.03156C69.6202 2.03156 68.8678 2.2877 68.2435 2.79998C67.6352 3.31226 67.331 4.00064 67.331 4.86511ZM74.0066 14.8545C74.0066 14.2782 73.8385 13.774 73.5024 13.3417C73.1662 12.8935 72.7419 12.5093 72.2297 12.1891C71.7334 11.8689 71.045 11.4847 70.1645 11.0365C69.7163 10.8123 69.3801 10.6362 69.156 10.5082C68.4036 10.8924 67.7952 11.4047 67.331 12.045C66.8667 12.6854 66.6346 13.3737 66.6346 14.1101C66.6346 15.2948 66.9788 16.2393 67.6672 16.9437C68.3716 17.6321 69.3241 17.9762 70.5247 17.9762C71.101 17.9762 71.6533 17.8482 72.1816 17.592C72.7259 17.3359 73.1662 16.9677 73.5024 16.4874C73.8385 16.0072 74.0066 15.4629 74.0066 14.8545ZM82.5268 6.57003C82.1906 6.6981 81.6623 6.85019 80.9419 7.02628C80.2215 7.20238 79.6372 7.32244 79.189 7.38648L78.9488 6.04175C79.7653 5.86565 80.5977 5.56949 81.4462 5.15326C82.3107 4.73704 83.031 4.28079 83.6074 3.78452H83.6314L85.0962 4.02465V17.568L88.0738 17.7841V18.9608H79.4291V17.7841L82.5268 17.568V6.57003ZM96.2005 19.1769C94.1514 19.1769 92.6146 18.4725 91.59 17.0637C90.5815 15.639 90.0772 13.806 90.0772 11.5648C90.0772 9.9959 90.3653 8.62715 90.9417 7.45852C91.518 6.27387 92.3024 5.36938 93.2949 4.74504C94.2875 4.1207 95.3761 3.80853 96.5607 3.80853C98.6419 3.80853 100.163 4.4809 101.123 5.82563C102.084 7.15435 102.564 8.97935 102.564 11.3006C102.564 12.8535 102.284 14.2302 101.724 15.4309C101.179 16.6155 100.419 17.536 99.4423 18.1924C98.4818 18.8487 97.4012 19.1769 96.2005 19.1769ZM96.2966 17.9522C98.6819 17.9522 99.8745 15.8151 99.8745 11.5407C99.8745 9.45961 99.6024 7.85874 99.0581 6.73813C98.5298 5.61752 97.6333 5.05721 96.3686 5.05721C95.1359 5.05721 94.2234 5.5935 93.6311 6.66609C93.0388 7.72266 92.7426 9.24349 92.7426 11.2286C92.7426 13.2617 93.0228 14.8946 93.5831 16.1272C94.1594 17.3439 95.0639 17.9522 96.2966 17.9522ZM117.329 19.1769C115.28 19.1769 113.743 18.4725 112.719 17.0637C111.71 15.639 111.206 13.806 111.206 11.5648C111.206 9.9959 111.494 8.62715 112.07 7.45852C112.647 6.27387 113.431 5.36938 114.424 4.74504C115.416 4.1207 116.505 3.80853 117.689 3.80853C119.771 3.80853 121.291 4.4809 122.252 5.82563C123.212 7.15435 123.693 8.97935 123.693 11.3006C123.693 12.8535 123.413 14.2302 122.852 15.4309C122.308 16.6155 121.548 17.536 120.571 18.1924C119.61 18.8487 118.53 19.1769 117.329 19.1769ZM117.425 17.9522C119.811 17.9522 121.003 15.8151 121.003 11.5407C121.003 9.45961 120.731 7.85874 120.187 6.73813C119.658 5.61752 118.762 5.05721 117.497 5.05721C116.265 5.05721 115.352 5.5935 114.76 6.66609C114.167 7.72266 113.871 9.24349 113.871 11.2286C113.871 13.2617 114.151 14.8946 114.712 16.1272C115.288 17.3439 116.193 17.9522 117.425 17.9522ZM132.759 19.1769C130.71 19.1769 129.174 18.4725 128.149 17.0637C127.14 15.639 126.636 13.806 126.636 11.5648C126.636 9.9959 126.924 8.62715 127.501 7.45852C128.077 6.27387 128.861 5.36938 129.854 4.74504C130.846 4.1207 131.935 3.80853 133.12 3.80853C135.201 3.80853 136.722 4.4809 137.682 5.82563C138.643 7.15435 139.123 8.97935 139.123 11.3006C139.123 12.8535 138.843 14.2302 138.282 15.4309C137.738 16.6155 136.978 17.536 136.001 18.1924C135.041 18.8487 133.96 19.1769 132.759 19.1769ZM132.856 17.9522C135.241 17.9522 136.433 15.8151 136.433 11.5407C136.433 9.45961 136.161 7.85874 135.617 6.73813C135.089 5.61752 134.192 5.05721 132.928 5.05721C131.695 5.05721 130.782 5.5935 130.19 6.66609C129.598 7.72266 129.302 9.24349 129.302 11.2286C129.302 13.2617 129.582 14.8946 130.142 16.1272C130.718 17.3439 131.623 17.9522 132.856 17.9522ZM148.19 19.1769C146.141 19.1769 144.604 18.4725 143.579 17.0637C142.571 15.639 142.066 13.806 142.066 11.5648C142.066 9.9959 142.355 8.62715 142.931 7.45852C143.507 6.27387 144.292 5.36938 145.284 4.74504C146.277 4.1207 147.365 3.80853 148.55 3.80853C150.631 3.80853 152.152 4.4809 153.112 5.82563C154.073 7.15435 154.553 8.97935 154.553 11.3006C154.553 12.8535 154.273 14.2302 153.713 15.4309C153.168 16.6155 152.408 17.536 151.432 18.1924C150.471 18.8487 149.39 19.1769 148.19 19.1769ZM148.286 17.9522C150.671 17.9522 151.864 15.8151 151.864 11.5407C151.864 9.45961 151.592 7.85874 151.047 6.73813C150.519 5.61752 149.623 5.05721 148.358 5.05721C147.125 5.05721 146.213 5.5935 145.62 6.66609C145.028 7.72266 144.732 9.24349 144.732 11.2286C144.732 13.2617 145.012 14.8946 145.572 16.1272C146.149 17.3439 147.053 17.9522 148.286 17.9522ZM169.318 19.1769C167.269 19.1769 165.733 18.4725 164.708 17.0637C163.699 15.639 163.195 13.806 163.195 11.5648C163.195 9.9959 163.483 8.62715 164.06 7.45852C164.636 6.27387 165.42 5.36938 166.413 4.74504C167.405 4.1207 168.494 3.80853 169.679 3.80853C171.76 3.80853 173.281 4.4809 174.241 5.82563C175.202 7.15435 175.682 8.97935 175.682 11.3006C175.682 12.8535 175.402 14.2302 174.841 15.4309C174.297 16.6155 173.537 17.536 172.56 18.1924C171.6 18.8487 170.519 19.1769 169.318 19.1769ZM169.415 17.9522C171.8 17.9522 172.992 15.8151 172.992 11.5407C172.992 9.45961 172.72 7.85874 172.176 6.73813C171.648 5.61752 170.751 5.05721 169.487 5.05721C168.254 5.05721 167.341 5.5935 166.749 6.66609C166.157 7.72266 165.861 9.24349 165.861 11.2286C165.861 13.2617 166.141 14.8946 166.701 16.1272C167.277 17.3439 168.182 17.9522 169.415 17.9522ZM184.749 19.1769C182.7 19.1769 181.163 18.4725 180.138 17.0637C179.13 15.639 178.625 13.806 178.625 11.5648C178.625 9.9959 178.914 8.62715 179.49 7.45852C180.066 6.27387 180.851 5.36938 181.843 4.74504C182.836 4.1207 183.924 3.80853 185.109 3.80853C187.19 3.80853 188.711 4.4809 189.671 5.82563C190.632 7.15435 191.112 8.97935 191.112 11.3006C191.112 12.8535 190.832 14.2302 190.272 15.4309C189.727 16.6155 188.967 17.536 187.99 18.1924C187.03 18.8487 185.949 19.1769 184.749 19.1769ZM184.845 17.9522C187.23 17.9522 188.423 15.8151 188.423 11.5407C188.423 9.45961 188.151 7.85874 187.606 6.73813C187.078 5.61752 186.182 5.05721 184.917 5.05721C183.684 5.05721 182.772 5.5935 182.179 6.66609C181.587 7.72266 181.291 9.24349 181.291 11.2286C181.291 13.2617 181.571 14.8946 182.131 16.1272C182.708 17.3439 183.612 17.9522 184.845 17.9522ZM200.179 19.1769C198.13 19.1769 196.593 18.4725 195.568 17.0637C194.56 15.639 194.056 13.806 194.056 11.5648C194.056 9.9959 194.344 8.62715 194.92 7.45852C195.496 6.27387 196.281 5.36938 197.273 4.74504C198.266 4.1207 199.355 3.80853 200.539 3.80853C202.62 3.80853 204.141 4.4809 205.102 5.82563C206.062 7.15435 206.542 8.97935 206.542 11.3006C206.542 12.8535 206.262 14.2302 205.702 15.4309C205.158 16.6155 204.397 17.536 203.421 18.1924C202.46 18.8487 201.38 19.1769 200.179 19.1769ZM200.275 17.9522C202.66 17.9522 203.853 15.8151 203.853 11.5407C203.853 9.45961 203.581 7.85874 203.037 6.73813C202.508 5.61752 201.612 5.05721 200.347 5.05721C199.114 5.05721 198.202 5.5935 197.61 6.66609C197.017 7.72266 196.721 9.24349 196.721 11.2286C196.721 13.2617 197.001 14.8946 197.562 16.1272C198.138 17.3439 199.042 17.9522 200.275 17.9522ZM212.512 6.57003C212.175 6.6981 211.647 6.85019 210.927 7.02628C210.206 7.20238 209.622 7.32244 209.174 7.38648L208.934 6.04175C209.75 5.86565 210.583 5.56949 211.431 5.15326C212.295 4.73704 213.016 4.28079 213.592 3.78452H213.616L215.081 4.02465V17.568L218.059 17.7841V18.9608H209.414V17.7841L212.512 17.568V6.57003Z" fill="#210B01"/>
</svg>
