<svg width="79" height="37" viewBox="0 0 79 37" fill="none" xmlns="http://www.w3.org/2000/svg">
<path d="M18.475 15.8542C18.475 16.1891 18.7442 16.4523 19.0731 16.4523C19.7548 16.4523 20.305 17.0084 20.305 17.6842C20.305 18.0131 20.5742 18.2823 20.9031 18.2823C21.232 18.2823 21.5011 18.0131 21.5011 17.6842C21.5011 16.3446 20.4127 15.2562 19.0731 15.2562C18.7442 15.2562 18.475 15.5253 18.475 15.8542ZM28.2111 18.2823C28.546 18.2823 28.8092 18.0131 28.8092 17.6842C28.8092 12.3138 24.4435 7.94814 19.0731 7.94814C18.7442 7.94814 18.475 8.21726 18.475 8.54618C18.475 8.8751 18.7442 9.14422 19.0731 9.14422C23.7856 9.14422 27.6131 12.9777 27.6131 17.6842C27.6131 18.0131 27.8822 18.2823 28.2111 18.2823Z" fill="#210B01"/>
<path d="M23.9591 17.6842C23.9591 18.0131 24.2282 18.2823 24.5571 18.2823C24.886 18.2823 25.1551 18.0131 25.1551 17.6842C25.1551 14.3292 22.4281 11.6022 19.0731 11.6022C18.7441 11.6022 18.475 11.8713 18.475 12.2002C18.475 12.5351 18.7441 12.7982 19.0731 12.7982C21.7702 12.7982 23.9591 14.993 23.9591 17.6842ZM19.0731 4.29412C18.7441 4.29412 18.475 4.56324 18.475 4.89216C18.475 5.22108 18.7441 5.4902 19.0731 5.4902C25.801 5.4902 31.2731 10.9623 31.2731 17.6842C31.2731 18.0131 31.5362 18.2823 31.8711 18.2823C32.2 18.2823 32.4692 18.0131 32.4692 17.6842C32.4692 10.2984 26.4589 4.29412 19.0731 4.29412ZM24.9159 23.9876L24.1325 24.4122C22.8108 25.1358 21.1363 24.8906 20.0658 23.8201L13.7505 17.5048C12.68 16.4343 12.4348 14.7598 13.1585 13.4322L13.5831 12.6547C14.0615 11.7696 14.2349 10.7769 14.0914 9.78412C13.9558 8.79338 13.4976 7.8749 12.7877 7.17069C11.9145 6.29756 10.7543 5.81912 9.5164 5.81912C8.27846 5.81912 7.11228 6.29756 6.23915 7.17069L5.93415 7.48167C4.31944 9.09638 4.13405 11.8773 5.40787 15.322C6.60993 18.6112 9.03199 22.1755 12.2136 25.3571C17.0637 30.2072 22.464 33 26.3392 33C27.8702 33 29.168 32.5634 30.089 31.6425L30.3999 31.3315C30.8306 30.9013 31.1722 30.3904 31.4051 29.8281C31.6381 29.2657 31.7578 28.6629 31.7575 28.0542C31.7491 26.8284 31.2619 25.6545 30.3999 24.783C28.9587 23.3417 26.7041 23.0187 24.9159 23.9876Z" fill="#210B01"/>
<path d="M67.3569 21.6373C67.0579 21.4878 65.1143 20.5907 64.8153 20.4412C64.5163 20.2917 64.2172 20.2917 63.9182 20.5907C63.6192 20.8897 63.0212 21.7868 62.7221 22.0858C62.5726 22.3848 62.2736 22.3848 61.9746 22.2353C60.928 21.7868 59.8814 21.1887 58.9844 20.4412C58.2368 19.6936 57.4893 18.7966 56.8913 17.8995C56.7417 17.6005 56.8912 17.3015 57.0408 17.152C57.1903 17.0025 57.3398 16.7034 57.6388 16.5539C57.7883 16.4044 57.9378 16.1054 57.9378 15.9559C58.0873 15.8064 58.0873 15.5074 57.9378 15.3579C57.7883 15.2083 57.0408 13.4142 56.7417 12.6667C56.5922 11.6201 56.2932 11.6201 55.9942 11.6201H55.2466C54.9476 11.6201 54.4991 11.9191 54.3496 12.0686C53.4525 12.9657 53.004 14.0123 53.004 15.2083C53.1535 16.5539 53.602 17.8995 54.4991 19.0956C56.1437 21.4878 58.2368 23.4314 60.7785 24.6275C61.5261 24.9265 62.1241 25.2255 62.8716 25.375C63.6192 25.674 64.3667 25.674 65.2638 25.5245C66.3104 25.375 67.2074 24.6275 67.8055 23.7304C68.1045 23.1324 68.1045 22.5343 67.955 21.9363L67.3569 21.6373ZM71.0947 8.03188C65.2638 2.201 55.8447 2.201 50.0138 8.03188C45.2295 12.8162 44.3324 20.1422 47.6216 25.9731L45.5285 33.5981L53.4525 31.5049C55.6952 32.701 58.0873 33.299 60.4795 33.299C68.7025 33.299 75.281 26.7206 75.281 18.4976C75.4305 14.6103 73.7859 10.8726 71.0947 8.03188ZM67.0579 28.9633C65.1143 30.1593 62.8716 30.9069 60.4795 30.9069C58.2368 30.9069 56.1437 30.3088 54.2001 29.2623L53.7515 28.9633L49.1167 30.1593L50.3128 25.674L50.0138 25.2255C46.4256 19.2451 48.2197 11.7696 54.0506 8.03188C59.8814 4.29413 67.3569 6.23776 70.9452 11.9191C74.5334 17.75 72.8888 25.375 67.0579 28.9633Z" fill="#210B01"/>
</svg>
