<svg width="373" height="373" viewBox="0 0 373 373" fill="none" xmlns="http://www.w3.org/2000/svg">
<path opacity="0.1" d="M186.5 0C83.5054 0 0 83.5054 0 186.5C0 289.495 83.5054 373 186.5 373C289.495 373 373 289.495 373 186.5C373 83.5054 289.495 0 186.5 0ZM188.202 119.908C225.782 119.908 255.668 149.783 255.668 186.5C255.668 223.217 224.919 253.092 188.202 253.092C150.634 253.092 120.747 223.217 120.747 186.5C120.747 149.783 150.634 119.908 188.202 119.908ZM85.7434 125.037H107.098C108.799 125.037 110.501 126.738 110.501 128.452V189.915H83.1907V128.452C83.1907 126.738 84.0416 125.037 85.7434 125.037ZM265.914 125.037H286.394C288.108 125.037 289.809 126.738 289.809 128.452V162.605C289.747 163.489 289.366 164.32 288.739 164.946C288.111 165.571 287.278 165.949 286.394 166.008V242.007C286.334 242.893 285.955 243.727 285.327 244.355C284.699 244.983 283.865 245.362 282.979 245.422H269.318C268.432 245.362 267.597 244.983 266.969 244.355C266.341 243.727 265.962 242.893 265.902 242.007V166.008C265.051 166.008 263.361 164.307 263.361 162.593V128.44C263.361 126.738 264.212 125.037 265.914 125.037ZM160.891 146.368C159.178 146.368 159.166 146.368 158.315 148.069C145.505 156.613 137.824 171.149 137.824 187.363C137.836 200.495 143.06 213.086 152.348 222.37C161.637 231.654 174.23 236.872 187.363 236.878C190.778 236.878 190.778 230.048 187.363 230.048C163.467 230.048 144.654 210.419 144.654 187.363C144.654 173.701 151.496 160.88 162.605 153.198C165.157 151.485 164.307 146.368 160.891 146.368ZM230.048 181.383C228.346 182.234 227.483 183.947 227.483 186.5C229.143 193.737 227.935 201.336 224.115 207.703C220.295 214.07 214.158 218.711 206.992 220.653H205.278C204.497 221.056 203.844 221.671 203.395 222.428C202.946 223.184 202.718 224.051 202.737 224.931C203.134 225.713 203.744 226.368 204.497 226.82C205.249 227.271 206.114 227.501 206.992 227.483C207.843 227.483 208.705 226.632 209.556 226.632C228.346 221.504 239.431 202.714 234.314 183.924C234.314 182.222 232.6 181.383 230.899 181.383H230.048ZM83.179 196.746H110.501V245.422C110.441 246.308 110.062 247.143 109.434 247.771C108.806 248.399 107.972 248.778 107.086 248.838H86.6059C85.7199 248.778 84.8856 248.399 84.2577 247.771C83.6297 247.143 83.2506 246.308 83.1907 245.422L83.179 196.746Z" fill="#FFCA6C"/>
</svg>
